<?xml version="1.0" encoding="UTF-8" standalone="no"?>
<svg
   id="ic_light_theme"
   width="24"
   height="24"
   viewBox="0 0 24 24"
   shape-rendering="geometricPrecision"
   version="1.1"
   sodipodi:docname="ic-check-theme-light.svg"
   inkscape:version="1.2.2 (732a01da63, 2022-12-09)"
   xmlns:inkscape="http://www.inkscape.org/namespaces/inkscape"
   xmlns:sodipodi="http://sodipodi.sourceforge.net/DTD/sodipodi-0.dtd"
   xmlns="http://www.w3.org/2000/svg"
   xmlns:svg="http://www.w3.org/2000/svg">
  <sodipodi:namedview
     id="namedview9021"
     pagecolor="#ffffff"
     bordercolor="#666666"
     borderopacity="1.0"
     inkscape:showpageshadow="2"
     inkscape:pageopacity="0.0"
     inkscape:pagecheckerboard="0"
     inkscape:deskcolor="#d1d1d1"
     showgrid="false"
     inkscape:zoom="9.8333333"
     inkscape:cx="10.271186"
     inkscape:cy="12"
     inkscape:window-width="1920"
     inkscape:window-height="1017"
     inkscape:window-x="-8"
     inkscape:window-y="-8"
     inkscape:window-maximized="1"
     inkscape:current-layer="Group_8846" />
  <defs
     id="defs9007">
    <style
       type="text/css"
       id="style9005">
            .cls-1{fill:#fff}.cls-2{fill:none}
        </style>
  </defs>
  <g
     id="Group_8846"
     data-name="Group 8846">
    <path
       id="Path_18900"
       d="M12 7a5 5 0 1 0 5 5 5.006 5.006 0 0 0-5-5zm0 8a3 3 0 1 1 3-3 3 3 0 0 1-3 3z"
       class="cls-1"
       data-name="Path 18900"
       style="fill:#000000;fill-opacity:1" />
    <path
       id="Rectangle_4418"
       d="M0 0h2v4H0z"
       class="cls-1"
       data-name="Rectangle 4418"
       transform="translate(11 2)"
       style="fill:#000000;fill-opacity:1" />
    <path
       id="Rectangle_4419"
       d="M0 0h2v4H0z"
       class="cls-1"
       data-name="Rectangle 4419"
       transform="translate(11 18)"
       style="fill:#000000;fill-opacity:1" />
    <path
       id="Rectangle_4420"
       d="M0 0h4v2H0z"
       class="cls-1"
       data-name="Rectangle 4420"
       transform="translate(2 11)"
       style="fill:#000000;fill-opacity:1" />
    <path
       id="Rectangle_4421"
       d="M0 0h4v2H0z"
       class="cls-1"
       data-name="Rectangle 4421"
       transform="translate(18 11)"
       style="fill:#000000;fill-opacity:1" />
    <path
       id="Rectangle_4422"
       d="M0 0h2v4H0z"
       class="cls-1"
       data-name="Rectangle 4422"
       transform="rotate(-45 8.914 -2.278)"
       style="fill:#000000;fill-opacity:1" />
    <path
       id="Rectangle_4423"
       d="M0 0h2v4H0z"
       class="cls-1"
       data-name="Rectangle 4423"
       transform="rotate(-45 28.228 -10.279)"
       style="fill:#000000;fill-opacity:1" />
    <path
       id="Rectangle_4424"
       d="M0 0h4v2H0z"
       class="cls-1"
       data-name="Rectangle 4424"
       transform="rotate(-45 24.278 4.086)"
       style="fill:#000000;fill-opacity:1" />
    <path
       id="Rectangle_4425"
       d="M0 0h4v2H0z"
       class="cls-1"
       data-name="Rectangle 4425"
       transform="rotate(-45 16.278 -15.229)"
       style="fill:#000000;fill-opacity:1" />
  </g>
  <path
     id="Rectangle_4426"
     d="M0 0h24v24H0z"
     class="cls-2"
     data-name="Rectangle 4426" />
</svg>
