<?xml version="1.0" encoding="UTF-8" standalone="no"?>
<svg
   id="ic_connect"
   width="24"
   height="24"
   viewBox="0 0 24 24"
   shape-rendering="geometricPrecision"
   version="1.1"
   sodipodi:docname="ic-check-connect.svg"
   inkscape:version="1.2.2 (732a01da63, 2022-12-09)"
   xmlns:inkscape="http://www.inkscape.org/namespaces/inkscape"
   xmlns:sodipodi="http://sodipodi.sourceforge.net/DTD/sodipodi-0.dtd"
   xmlns="http://www.w3.org/2000/svg"
   xmlns:svg="http://www.w3.org/2000/svg">
  <sodipodi:namedview
     id="namedview11750"
     pagecolor="#ffffff"
     bordercolor="#666666"
     borderopacity="1.0"
     inkscape:showpageshadow="2"
     inkscape:pageopacity="0.0"
     inkscape:pagecheckerboard="0"
     inkscape:deskcolor="#d1d1d1"
     showgrid="false"
     inkscape:zoom="9.8333333"
     inkscape:cx="10.271186"
     inkscape:cy="12"
     inkscape:window-width="1920"
     inkscape:window-height="1017"
     inkscape:window-x="-8"
     inkscape:window-y="-8"
     inkscape:window-maximized="1"
     inkscape:current-layer="Group_8843" />
  <defs
     id="defs11737">
    <style
       type="text/css"
       id="style11735">
            .cls-1{fill:#fff}.cls-2{fill:none}
        </style>
  </defs>
  <g
     id="Group_8843"
     data-name="Group 8843"
     transform="translate(0,-1.220339)">
    <g
       id="Group_8839"
       data-name="Group 8839">
      <circle
         id="Ellipse_602"
         cx="2"
         cy="2"
         r="2"
         class="cls-1"
         data-name="Ellipse 602"
         transform="translate(10,16)"
         style="fill:#000000;fill-opacity:1" />
    </g>
    <g
       id="Group_8840"
       data-name="Group 8840">
      <path
         id="Path_18896"
         d="m 20.733,9.393 a 12.935,12.935 0 0 0 -17.466,0 L 1.921,7.913 a 14.937,14.937 0 0 1 20.158,0 z"
         class="cls-1"
         data-name="Path 18896"
         style="fill:#000000;fill-opacity:1" />
    </g>
    <g
       id="Group_8841"
       data-name="Group 8841">
      <path
         id="Path_18897"
         d="m 18.046,12.349 a 8.955,8.955 0 0 0 -12.092,0 l -1.346,-1.48 a 10.957,10.957 0 0 1 14.784,0 z"
         class="cls-1"
         data-name="Path 18897"
         style="fill:#000000;fill-opacity:1" />
    </g>
    <g
       id="Group_8842"
       data-name="Group 8842">
      <path
         id="Path_18898"
         d="M 8.642,15.305 7.3,13.826 a 6.972,6.972 0 0 1 9.408,0 l -1.346,1.479 a 5.1,5.1 0 0 0 -6.72,0 z"
         class="cls-1"
         data-name="Path 18898"
         style="fill:#000000;fill-opacity:1" />
    </g>
  </g>
  <path
     id="Rectangle_4416"
     d="M0 0h24v24H0z"
     class="cls-2"
     data-name="Rectangle 4416" />
</svg>
