<?xml version="1.0" encoding="UTF-8" standalone="no"?>
<svg
   width="24px"
   height="24px"
   viewBox="0 0 24 24"
   version="1.1"
   shape-rendering="geometricPrecision"
   id="svg8000"
   sodipodi:docname="ic-check-sync.svg"
   inkscape:version="1.2.2 (732a01da63, 2022-12-09)"
   xmlns:inkscape="http://www.inkscape.org/namespaces/inkscape"
   xmlns:sodipodi="http://sodipodi.sourceforge.net/DTD/sodipodi-0.dtd"
   xmlns="http://www.w3.org/2000/svg"
   xmlns:svg="http://www.w3.org/2000/svg">
  <defs
     id="defs8004" />
  <sodipodi:namedview
     id="namedview8002"
     pagecolor="#ffffff"
     bordercolor="#666666"
     borderopacity="1.0"
     inkscape:showpageshadow="2"
     inkscape:pageopacity="0.0"
     inkscape:pagecheckerboard="0"
     inkscape:deskcolor="#d1d1d1"
     showgrid="false"
     inkscape:zoom="9.8333333"
     inkscape:cx="10.271186"
     inkscape:cy="12"
     inkscape:window-width="1920"
     inkscape:window-height="1017"
     inkscape:window-x="-8"
     inkscape:window-y="-8"
     inkscape:window-maximized="1"
     inkscape:current-layer="Top-Bar-Sync" />
  <!-- Generator: Sketch 52.6 (67491) - http://www.bohemiancoding.com/sketch -->
  <title
     id="title7992">Top Bar Sync</title>
  <desc
     id="desc7994">Created with Sketch.</desc>
  <g
     id="Top-Bar-Sync"
     stroke="none"
     stroke-width="1"
     fill="none"
     fill-rule="evenodd">
    <g
       id="Group"
       transform="translate(3.000000, 2.000000)"
       fill="#FFFFFF"
       fill-rule="nonzero"
       style="fill:#000000;fill-opacity:1">
      <path
         d="M9,17 C6.7091695,17.0037775 4.56252572,15.8824243 3.257,14 L6,14 L6,12 L1.91846539e-13,12 L1.91846539e-13,18 L2,18 L2,15.628 C4.38512581,18.6101588 8.39479686,19.7586985 11.9970926,18.491591 C15.5993884,17.2244835 18.0070568,13.8186446 18.0000155,10 L16,10 C15.9950416,13.8639376 12.8639376,16.9950416 9,17 Z"
         id="Path_18901"
         style="fill:#000000;fill-opacity:1" />
      <path
         d="M16,2 L16,4.37 C13.6140871,1.38879836 9.60454793,0.241226531 6.0026343,1.50864989 C2.40072068,2.77607325 -0.00669322382,6.18161043 -1.39212059e-05,10 L2,10 C1.99972549,6.94124698 3.98547525,4.23651555 6.90387111,3.32058119 C9.82226696,2.40464683 12.9974156,3.48963768 14.745,6 L12,6 L12,8 L18,8 L18,2 L16,2 Z"
         id="Path_18902"
         style="fill:#000000;fill-opacity:1" />
    </g>
  </g>
</svg>
