<?xml version="1.0" encoding="UTF-8" standalone="no"?>
<svg
   id="svg4"
   viewBox="0 0 752 752"
   version="1.1"
   height="752pt"
   width="752pt"
   sodipodi:docname="ic-check-privacy.svg"
   inkscape:version="1.2.2 (732a01da63, 2022-12-09)"
   xmlns:inkscape="http://www.inkscape.org/namespaces/inkscape"
   xmlns:sodipodi="http://sodipodi.sourceforge.net/DTD/sodipodi-0.dtd"
   xmlns="http://www.w3.org/2000/svg"
   xmlns:svg="http://www.w3.org/2000/svg"
   xmlns:rdf="http://www.w3.org/1999/02/22-rdf-syntax-ns#"
   xmlns:cc="http://creativecommons.org/ns#"
   xmlns:dc="http://purl.org/dc/elements/1.1/">
  <sodipodi:namedview
     id="namedview15949"
     pagecolor="#ffffff"
     bordercolor="#666666"
     borderopacity="1.0"
     inkscape:showpageshadow="2"
     inkscape:pageopacity="0.0"
     inkscape:pagecheckerboard="0"
     inkscape:deskcolor="#d1d1d1"
     inkscape:document-units="pt"
     showgrid="false"
     inkscape:zoom="0.23537234"
     inkscape:cx="429.10734"
     inkscape:cy="501.33333"
     inkscape:window-width="1920"
     inkscape:window-height="1017"
     inkscape:window-x="-8"
     inkscape:window-y="-8"
     inkscape:window-maximized="1"
     inkscape:current-layer="svg4" />
  <metadata
     id="metadata10">
    <rdf:RDF>
      <cc:Work
         rdf:about="">
        <dc:format>image/svg+xml</dc:format>
        <dc:type
           rdf:resource="http://purl.org/dc/dcmitype/StillImage" />
        <dc:title />
      </cc:Work>
    </rdf:RDF>
  </metadata>
  <defs
     id="defs8" />
  <path
     style="fill-rule:evenodd;stroke-width:1.4723345;fill:#000000;fill-opacity:1"
     id="path2"
     d="M 502.64487,271.73547 C 575.60603,313.48407 622.58921,376 622.58921,376 c 0,0 -105.88363,140.90024 -246.60243,140.90024 C 235.26796,516.90024 129.39903,376 129.39903,376 c 0,0 52.71556,-70.14762 133.18236,-111.45208 -15.72373,23.05594 -24.92322,50.95918 -24.92322,81.03003 0,79.21507 63.866,143.43677 142.65656,143.43677 78.78615,0 142.65655,-64.2217 142.65655,-143.43677 0,-27.01051 -7.42583,-52.27391 -20.33229,-73.84248 z M 375.99264,567.24999 C 566.9898,567.24999 687.24999,376 687.24999,376 c 0,0 -120.25285,-191.25 -311.25735,-191.25 C 184.99549,184.75 64.749997,376 64.749997,376 c 0,0 120.252843,191.24999 311.242643,191.24999 z M 354.88615,252.44964 c -37.11231,-0.66286 -73.12132,27.60368 -75.21037,69.26523 -0.48204,9.56825 6.852,17.71285 16.37749,18.19685 9.52048,0.48416 17.63501,-6.88225 18.11102,-16.44977 1.07887,-21.4933 20.42924,-36.68145 40.10778,-36.33026 9.53766,0.16714 17.40584,-7.45864 17.57186,-17.03853 0.16641,-9.57402 -7.42583,-17.47679 -16.95778,-17.64352 z" />
</svg>
